<svg id="Layer_1" data-name="Layer 1" xmlns="http://www.w3.org/2000/svg" viewBox="0 0 742.4477 192.2395"><g style="opacity:0.62"><path d="M187.1492,101.3366l53.0568,54.0713c10.0594-12.5658,17.6234-27.46,23.2062-43.2722L232.3537,94.4583l.3286-9.9737,38.6612-.9831c1.7354-8.2719,3.0607-16.5588,4.0158-24.6766.1-.8532.1789-1.7139.27-2.57L202.8353,52.992C200.87,70.2433,196.282,88.5151,187.1492,101.3366Zm-85.826-40.9449L29.02,68.02q1.49,7.52,3.28,14.8791c17.13,69.9081,53.7917,111.4142,132.8719,109.26,26.4325-.72,46.9408-9.7572,62.7652-23.7838-14.2424-16.2893-45.8927-50.6563-51.2466-56.4637a35.5744,35.5744,0,0,1-19.5476,6.3677c-33.0477,1.1091-48.3686-20.2634-55.5272-56.2609C101.51,61.4818,101.426,60.931,101.3232,60.3917Z" style="fill:none;stroke:#7c5959;stroke-miterlimit:10;stroke-width:1.5px"/></g><g style="opacity:0.62"><path d="M543.826,0,471.0324,3.2629c.0907.8561.17,1.7168.27,2.57.9551,8.1178,2.28,16.4047,4.0157,24.6766l38.6612.9831.3287,9.9737L483.2491,59.1438C488.832,74.9564,496.396,89.85,506.4554,102.416l53.0567-54.0714C550.3793,35.5231,545.7911,17.2513,543.826,0ZM645.0448,9.0268c-7.1585,35.9975-22.48,57.37-55.5271,56.2609A35.5747,35.5747,0,0,1,569.97,58.92c-5.3538,5.8073-37.0041,40.1744-51.2465,56.4636,15.8243,14.0266,36.3327,23.0642,62.7652,23.7839,79.08,2.1538,115.7416-39.3522,132.8719-109.26q1.8006-7.3485,3.28-14.8791L645.3382,7.4C645.2353,7.9391,645.1515,8.49,645.0448,9.0268Z" style="fill:none;stroke:#7c5959;stroke-miterlimit:10;stroke-width:1.5px"/></g></svg>