<svg id="Layer_1" data-name="Layer 1" xmlns="http://www.w3.org/2000/svg" viewBox="0 0 742.4477 936.0405"><g style="opacity:0.62"><path d="M187.1492,844.3877,240.206,898.459c10.0594-12.5658,17.6234-27.46,23.2062-43.2722l-31.0585-17.6774.3286-9.9737,38.6612-.9832c1.7354-8.2718,3.0607-16.5587,4.0158-24.6765.1-.8532.1789-1.714.27-2.57l-72.7937-3.2629C200.87,813.2944,196.282,831.5662,187.1492,844.3877Zm-85.826-40.9449L29.02,811.0712q1.49,7.52,3.28,14.879c17.13,69.9082,53.7917,111.4143,132.8719,109.26,26.4325-.72,46.9408-9.7572,62.7652-23.7838-14.2424-16.2893-45.8927-50.6564-51.2466-56.4637a35.5736,35.5736,0,0,1-19.5476,6.3676c-33.0477,1.1092-48.3686-20.2633-55.5272-56.2608C101.51,804.5329,101.426,803.9821,101.3232,803.4428Z" style="fill:none;stroke:#7c5959;stroke-miterlimit:10;stroke-width:1.5px"/><path d="M278.9889,293.4708l79.9247-21.554a399.7214,399.7214,0,0,0-4.7194-42.2562l-84.4114-23.3624c1.4656,8.1107,3.8206,19.734,5.7919,33.8925l48.2807,8.4375-45.8033,14.2659C278.7959,272.4575,279.1887,282.7139,278.9889,293.4708Zm-11.8384-99.8032,83.5447,17.1133c-2.8038-13.689-5.7107-25.263-7.8119-34.1731l-39.3611-3.7122,34.0508-16.3534a198.2332,198.2332,0,0,0-13.4153-33.3784l-71.9244,31.748C258.0691,164.6049,263.2241,177.1857,267.1505,193.6676Zm-186.74-73.5532,61.2879,27.9445c17.5523-20.4371,39.7615-31.8767,67.4791-26.0233,11.1971,3.2851,24.1932,8.7444,35.67,22.4425l6.3018-.3188s47.7523-24.0763,66.248-32.7375c-24.8531-39.0707-58.6881-51.0946-86.4967-57.4454C164.8954,43.1262,115.8615,73.7486,80.4109,120.1144ZM29.02,219.2737,109.13,207.2964c6.6472-17.9122,14.7828-34.8382,24.6026-48.9085L72.3279,131.2832A316.6283,316.6283,0,0,0,53.6583,162.4l32.5852,15.6489-42.2249,3.982C38.4248,194.2737,33.4344,206.779,29.02,219.2737Zm66.4467,33.9026c2.5622-10.8918,5.5993-21.99,9.1506-32.9025L24.77,231.8224c-4.9979,15.42-9.1354,30.66-12.492,45.1906l73.6258,31.4393C86.99,298.5457,88.5872,287.4364,90.75,275.7L51.0005,257.2334ZM248.5638,435.9777c-1.1744,5.28-2.35,10.729-3.5072,16.25l79.8495,9.6982c3.5991-13.7183,6.2136-24.4973,13.0711-49.91l-67.63-54.586c-3.1383,13.6525-5.6018,22.828-7.73,29.9414l37.5207,32.7884L253.08,417.59C251.7259,422.4939,250.2573,428.3631,248.5638,435.9777ZM84.2074,370.34,4.8433,423.0158c2.4623,18.4482,5.8144,37.022,9.58,55.0839L91.5969,453.6c-1.1678-8.5578-2.2692-17.5759-3.2553-26.86l-45.9,3.4127,43.6544-27.6861C85.25,391.7453,84.5943,380.9377,84.2074,370.34ZM.76,374.0241c.28,11.51,1.1168,23.3206,2.4092,35.2723l80.7017-51.869c-.176-11.4261-.0028-22.4462.6158-32.6477.0871-1.4333.1931-2.9285.3091-4.4516l-74.8-33.0172C6.4737,304.0164,4.0292,319.5251,2.528,332.985l41.48,2.7548.431,10.5622Zm272.816-31.2248,68.2458,55.07c2.011-7.3534,4.3114-15.7006,6.9763-25.2948,1.3256-4.7712,2.4861-9.514,3.5364-14.2315l-39.1728-22.1313,3.29-10.6935,41.3244-.5859a324.97,324.97,0,0,0,1.577-42.5656l-80.9117,24.3811A258.32,258.32,0,0,1,273.5761,342.7993Z" style="fill:none;stroke:#7c5959;stroke-miterlimit:10;stroke-width:1.5px"/><path d="M190.0638,273.9728l77.5871,27.13a314.9441,314.9441,0,0,0-2.5166-39.6485L193.856,226.9881a3.8565,3.8565,0,0,0-2.8732-.1952l-76.0974,24.7622A424.8654,424.8654,0,0,0,104.62,299.9939l81.2538-26.0752A6.5927,6.5927,0,0,1,190.0638,273.9728ZM173.6644,422.061l-67.1063,21.8368c2.1219,16.7928,4.5427,31.7575,6.8551,42.9852l55.142-17.6955a6.592,6.592,0,0,1,4.19.0542l54.3159,18.993c3.1336-11.5889,6.7118-24.2841,9.9-36.76l-60.4237-29.2179A3.86,3.86,0,0,0,173.6644,422.061ZM100.5893,368.85l82.6857-26.5352a6.5933,6.5933,0,0,1,4.19.0543l71.5873,25.0327c1.1009-4.8053,2.3009-10.2907,3.6308-16.6794,1.3887-6.6714,2.4407-13.2682,3.211-19.7461l-74.6367-35.5919a3.8573,3.8573,0,0,0-2.8731-.1956l-86.6555,28.198c-.3214,3.4885-.574,6.7891-.752,9.8409C100.3336,344.2466,100.2536,356.3387,100.5893,368.85Zm78.7415-11.7258-78.216,25.4516c.7216,14.761,1.9383,29.7629,3.442,44.0305L174.2216,404.25a6.5933,6.5933,0,0,1,4.19.0543L242.73,426.795c4.0146-17.7078,6.5664-23.4549,10.1051-35.3216L182.2039,357.32A3.8582,3.8582,0,0,0,179.3308,357.1241Zm13.6313-149.0556,67.4431,23.5833c-.26-1.45-.5046-2.8143-.7231-4.0746-3.1922-18.4137-7.8644-32.1449-13.3364-42.5136l-49.591-23.98a3.8564,3.8564,0,0,0-2.8731-.1952l-42.9594,13.9791c-12.1418,14.2631-21.7294,33.7233-29.13,54.6417l66.9805-21.4948A6.5915,6.5915,0,0,1,192.9621,208.0685Z" style="fill:none;stroke:#7c5959;stroke-miterlimit:10;stroke-width:1.5px;opacity:0"/></g><g style="opacity:0.32"><path d="M151.69,189.0979a70.1623,70.1623,0,0,1,9.8392-9.8556c-2.2763,3.957-3.38,6.08-5.5089,10.5912-1.5,1.4089-2.2585,2.1263-3.7815,3.57-1.1264,1.7982-1.6892,2.7058-2.82,4.5488-20.8923,43.5885-25.7991,93.386-24.4743,141.0875,1.43,20.1318,3.9588,40.0933,10.8291,59.15,4.1529,11.5191,7.8833,17.7621,10.9823,19.5954,3.0656,1.8136,4.1637-1.9862,4.2776-12.9461.2133-20.5277-.7081-41.1853-.8249-61.7669.4419-50.7638,4.2851-102.2126,17.1233-151.5067.2077-2.2567.3274-3.3566.5968-5.4818-.9241-.6446-1.3666-.936-2.2085-1.4594,1.6438-4.8392,2.4931-7.1271,4.2383-11.415a42.2529,42.2529,0,0,1,9.4065-4.4029c-1.1724,4.5467-1.7471,6.9633-2.868,12.0588-1.4909,1.4311-2.2486,2.1614-3.79,3.6532-.9461,2.43-1.4267,3.6722-2.3941,6.1925-11.9975,51.2575-15.6564,104.35-16.131,156.8488.0839,15.4708.41,30.9349.87,46.385.2937,9.8438.4965,17.7109.5592,23.8934.0786,7.76-.1261,12.866-.72,15.8156-.5918,2.9391-1.55,3.393-3.3279,1.7714-1.7906-1.6335-4.0758-4.9841-7.12-10.0642a177.057,177.057,0,0,1-10.11-19.3818,167.0913,167.0913,0,0,1-8.3045-22.9054c-3.855-13.6852-5.6241-27.576-7.0737-41.7018-2.4265-47.5958,2.6474-97.9334,25.9236-140.4453.5284-1.3311.8054-1.9708,1.39-3.206a9.429,9.429,0,0,0-1.6494.6722A90.8744,90.8744,0,0,1,151.69,189.0979Z" style="fill:#7c5959"/><path d="M167.9916,442.348c-.4788-4.9723-.6953-7.61-1.0778-13.1352,1.1585-.3254,1.7508-.5021,2.9591-.8965.294-1.8557.451-2.7982.7851-4.7249-1.7-79.0815,1.9633-159.0812,12.5774-237.4991-.1195-1.8941-.1711-2.8191-.2576-4.6366-1.1-.6108-1.6367-.9-2.6861-1.4288.9393-5.16,1.4188-7.6088,2.3927-12.2207a34.13,34.13,0,0,1,11.2882-1.3195c-.3074,4.7354-.4672,7.2454-.7974,12.5258-1.3807.73-2.0815,1.119-3.5,1.9288-.5443,1.8961-.8231,2.8572-1.3966,4.8179-3.737,38.6424-6.1793,77.4027-8.3128,116.1617,1.2024.0593,1.8055.0893,3.0122.15,7.1686-38.2716,15.3775-76.53,19.9687-115.2267-.1646-1.9771-.2467-2.9469-.41-4.8613-1.2112-1.0034-1.81-1.4928-2.994-2.43.028-5.2847.03-7.7971.007-12.5382a34.8725,34.8725,0,0,1,9.3808,2.73c.603,4.6655.88,7.14,1.3837,12.3463-1.2236.6936-1.8611,1.0689-3.1822,1.88-2.59,34.5475-9.6413,68.7668-16.0228,102.7572,2.96,47.2654,7.0813,95.057,4.67,142.4408,1.4959.4118,2.2306.5862,3.6681.8842-1.1023,5.4011-1.67,7.9747-2.8273,12.8153a39.8872,39.8872,0,0,1-7.9189,1.6893c.5133-3.6066.7692-5.49,1.2762-9.394.5887-37.59-2.7094-75.2759-5.1637-112.7508-2.3519-.1252-3.5244-.19-5.8593-.3255-1.5437,34.0962-2.7919,68.2044-3.1513,102.3361.3758,2.0615.5581,3.0728.9125,5.069,1.3745.8417,2.057,1.2407,3.41,2.0052-.23,5.5849-.337,8.2518-.5325,13.2807A38.4314,38.4314,0,0,1,167.9916,442.348Z" style="fill:#7c5959"/><path d="M211.8015,171.0722a44.7579,44.7579,0,0,1,10.5512,7.0872c3.2379,2.7533,7.2229,8.8952,12.2084,18.8907a160.4843,160.4843,0,0,1,15.22,47.2055c2.0869,13.8964,3.1228,28.0681,1.0979,42.2789-1.6558,11.62-5.0293,20.38-9.2356,25.5563a41.4234,41.4234,0,0,1,3.716,12.0862,89.6121,89.6121,0,0,1,.8918,17.5129,198.5229,198.5229,0,0,1-4.0993,31.2663,196.3128,196.3128,0,0,1-6.3606,24.1521c-2.7695,8.8175-4.723,13.8189-5.3046,16.0706-.582,2.2534.02,2.52,1.9521.9693.1638-.1315.2455-.1973.4088-.33a97.0146,97.0146,0,0,1-6.5689,9.2344c-1.1287,1.3058-2.08,2.4068-2.8389,3.2721-.7666.8748-1.3709,1.5468-1.8313,2.0207-.9329.96-1.3436,1.2105-1.2962.6874a24.5558,24.5558,0,0,1,1.4279-4.05c5-12.1726,8.4474-24.6505,11.7561-37.3752,1.817-7.8589,2.8824-14.1631,3.5174-18.3681,1.4433-11.6581,3.03-23.485,1.605-35.0938-.8346-6.7962-3.1854-10.4909-6.588-10.5479a14.4252,14.4252,0,0,0-3.5378.6206c-.1088.086-.162.1242-.2708.21-2.8014,32.4595-7.1489,64.7417-16.0259,96.1612-.1594,1.7356-.2492,2.58-.4522,4.2308,1.01.1467,1.5043.1973,2.4671.2641-1.7866,5.04-2.7163,7.4317-4.6289,11.9073a47.8218,47.8218,0,0,1-10.9726,5.2292c1.2712-4.7973,1.8938-7.3494,3.1-12.7079,1.3586-.95,2.0428-1.4345,3.4228-2.4309.8295-1.9579,1.2472-2.947,2.0927-4.9578,17.0753-74.9064,21.21-154.5322,11.08-230.7249-.6371-2.0394-.9521-3.042-1.5774-5.0254-1.251-1.2525-1.8714-1.87-3.0987-3.0715C212.9561,178.1431,212.59,175.6919,211.8015,171.0722Zm10.2032,17.8767c7.92,36.8491,8.5228,75.0226,7.52,112.531a21.201,21.201,0,0,0,2.1341.4861c.6688.1154,1.325.2115,1.952.256,4.5784.3246,8.2383-4.5774,10.1335-13.8654,2.8245-13.8417,2.0388-29.1973.2561-43.14-1.7173-13.4312-4.7887-27.45-9.9708-40.0679-3.3528-8.1638-6.5795-13.0593-9.6882-14.8838C223.413,189.72,222.9459,189.4567,222.0047,188.9489Z" style="fill:#7c5959"/></g><g style="opacity:0.62"><path d="M543.826,743.0511l-72.7936,3.2629c.0907.8561.17,1.7168.27,2.57.9551,8.1178,2.28,16.4047,4.0157,24.6766l38.6612.9831.3287,9.9737-31.0586,17.6774c5.5829,15.8127,13.1469,30.7064,23.2063,43.2722l53.0567-54.0713C550.3793,778.5742,545.7911,760.3024,543.826,743.0511Zm101.2188,9.0268c-7.1585,35.9975-22.48,57.37-55.5271,56.2609a35.5748,35.5748,0,0,1-19.5477-6.3677c-5.3538,5.8074-37.0041,40.1744-51.2465,56.4637,15.8243,14.0266,36.3327,23.0641,62.7652,23.7838,79.08,2.1539,115.7416-39.3522,132.8719-109.26q1.8006-7.3486,3.28-14.8791l-72.3027-7.6284C645.2353,750.99,645.1515,751.5409,645.0448,752.0779Z" style="fill:none;stroke:#7c5959;stroke-miterlimit:10;stroke-width:1.5px"/><path d="M464.3957,211.8581l-45.8033-14.2659,48.2806-8.4374c1.9714-14.1586,4.3263-25.7818,5.792-33.8926l-84.4115,23.3624a399.7214,399.7214,0,0,0-4.7194,42.2562l79.9248,21.5541C463.259,231.6779,463.6518,221.4216,464.3957,211.8581Zm25.8188-107.9823L418.29,72.1279a198.232,198.232,0,0,0-13.4153,33.3783L438.9256,121.86l-39.3612,3.7122c-2.1011,8.91-5.0081,20.4842-7.8118,34.1732l83.5446-17.1134C479.2236,126.15,484.3786,113.5689,490.2145,103.8758ZM511.5469,2.94C483.7383,9.2912,449.9033,21.3151,425.05,60.3858c18.4957,8.6612,66.2481,32.7376,66.2481,32.7376l6.3017.3187C509.0767,79.744,522.0728,74.2847,533.27,71c27.7175-5.8535,49.9268,5.5862,67.4791,26.0233l61.2879-27.9445C626.5862,22.7126,577.5524-7.91,511.5469,2.94ZM698.4291,130.9947l-42.2249-3.9821,32.5852-15.6489a316.6283,316.6283,0,0,0-18.67-31.1165l-61.4045,27.1047c9.82,14.07,17.9555,30.9963,24.6026,48.9085l80.1094,11.9773C709.0134,155.743,704.0229,143.2377,698.4291,130.9947Zm-6.9818,75.2027L651.6981,224.664c2.1624,11.7364,3.7593,22.8457,4.8462,32.7523L730.17,225.9771c-3.3566-14.5309-7.4941-29.7707-12.492-45.1907L637.83,169.2378c3.5512,10.9128,6.5883,22.0107,9.15,32.9025ZM489.3682,366.5544l-47.0583,2.569,37.5206-32.7884c-2.1279-7.1134-4.5914-16.2889-7.73-29.9414l-67.63,54.586c6.8576,25.4127,9.472,36.1917,13.0711,49.91l79.85-9.6982c-1.1569-5.5207-2.3329-10.9695-3.5072-16.25C492.1905,377.3271,490.7218,371.4579,489.3682,366.5544ZM656.352,351.4307l43.6544,27.6861-45.9-3.4126c-.9861,9.2842-2.0876,18.3024-3.2553,26.86l77.1732,24.4994c3.7659-18.062,7.118-36.6358,9.58-55.0839L658.24,319.3036C657.8535,329.9017,657.1976,340.7094,656.352,351.4307Zm41.6567-56.1647.4309-10.5622,41.48-2.7548c-1.5013-13.46-3.9458-28.9686-7.4683-45.6741l-74.8,33.0172c.116,1.5231.222,3.0183.3091,4.4516.6185,10.2016.7918,21.2217.6158,32.6477l80.7016,51.869c1.2924-11.9517,2.129-23.7622,2.4092-35.2722ZM464.0059,255.7122l-80.9117-24.3811a324.9527,324.9527,0,0,0,1.577,42.5656l41.3243.5859,3.29,10.6935-39.1727,22.1314c1.05,4.7174,2.2107,9.46,3.5364,14.2314,2.6649,9.5942,4.9652,17.9415,6.9763,25.2948l68.2458-55.07A258.305,258.305,0,0,1,464.0059,255.7122Z" style="fill:none;stroke:#7c5959;stroke-miterlimit:10;stroke-width:1.5px"/><path d="M566.7788,158.2522l81.2538,26.0752a424.85,424.85,0,0,0-10.2655-48.4389L561.67,111.1264a3.8565,3.8565,0,0,0-2.8732.1952l-71.2783,34.4666a314.9265,314.9265,0,0,0-2.5165,39.6485l77.587-27.13A6.5927,6.5927,0,0,1,566.7788,158.2522ZM576.115,306.59,515.6913,335.808c3.1884,12.476,6.7666,25.1713,9.9,36.76l54.316-18.9931a6.5924,6.5924,0,0,1,4.19-.0541l55.142,17.6955c2.3124-11.2278,4.7332-26.1924,6.8552-42.9852l-67.1064-21.8368A3.86,3.86,0,0,0,576.115,306.59Zm75.5605-89.029c-.1781-3.0518-.4307-6.3524-.7521-9.8409l-86.6555-28.198a3.8573,3.8573,0,0,0-2.8731.1956L486.7581,215.31c.77,6.4779,1.8223,13.0747,3.211,19.7461,1.33,6.3887,2.53,11.8741,3.6308,16.6794l71.5874-25.0327a6.593,6.593,0,0,1,4.19-.0543l82.6857,26.5352C652.399,240.6722,652.3189,228.58,651.6755,217.5611Zm-81.2269,24.0921-70.631,34.1537c3.5387,11.8667,6.09,17.6138,10.1051,35.3215l64.318-22.49a6.593,6.593,0,0,1,4.19-.0543L648.0957,310.94c1.5037-14.2676,2.72-29.2695,3.442-44.0305l-78.216-25.4516A3.8582,3.8582,0,0,0,570.4486,241.6532ZM563.88,92.3477l66.9805,21.4948c-7.4009-20.9184-16.9885-40.3786-29.13-54.6417l-42.96-13.9791a3.8564,3.8564,0,0,0-2.8731.1952l-49.591,23.98c-5.4719,10.3687-10.1441,24.1-13.3363,42.5136-.2185,1.26-.4626,2.6243-.7232,4.0746L559.69,92.402A6.5915,6.5915,0,0,1,563.88,92.3477Z" style="fill:none;stroke:#7c5959;stroke-miterlimit:10;stroke-width:1.5px;opacity:0"/></g><g style="opacity:0.32"><path d="M506.0618,137.21a70.1492,70.1492,0,0,1,8.2505-11.2193c-1.6573,4.2536-2.4305,6.5183-3.8587,11.2973-1.2725,1.6181-1.9143,2.441-3.2037,4.0971-.8439,1.9467-1.2644,2.9284-2.1059,4.92-14.1214,46.228-11.507,96.1983-3.0457,143.1621,4.4323,19.69,9.9248,39.0467,19.5746,56.8581,5.8329,10.7663,10.4572,16.38,13.796,17.7275,3.3029,1.3334,3.819-2.5881,2.2884-13.4411-2.8669-20.3277-6.8748-40.6137-10.076-60.9452-7.1735-50.2563-11.087-101.7-5.7843-152.3615-.1328-2.2623-.18-3.3677-.2317-5.5092-1.01-.4989-1.4915-.7206-2.4024-1.1118.9-5.031,1.3965-7.4205,2.479-11.9215a42.2654,42.2654,0,0,1,8.64-5.7634c-.4775,4.6711-.6833,7.1465-1.0276,12.3525-1.26,1.6384-1.8993,2.4741-3.1992,4.18-.571,2.5443-.86,3.8446-1.4386,6.4814-4.1773,52.4769.1651,105.5181,7.5664,157.4945,2.4024,15.2833,5.0426,30.5236,7.8148,45.73,1.7663,9.6883,3.1462,17.4362,4.1351,23.5394,1.2412,7.6607,1.8042,12.74,1.6593,15.7448-.1445,2.9946-1.0243,3.5871-3.0247,2.25-2.0153-1.3467-4.7772-4.3167-8.5485-8.883a177.0436,177.0436,0,0,1-12.9011-17.6471,167.076,167.076,0,0,1-11.6446-21.4015c-5.8631-12.9526-9.6947-26.4211-13.2458-40.17-9.5348-46.6941-12.0648-97.2235,4.5749-142.7445.3228-1.3953.5008-2.0693.8935-3.3782a9.4308,9.4308,0,0,0-1.53.9119A90.8882,90.8882,0,0,1,506.0618,137.21Z" style="fill:#7c5959"/><path d="M560.1469,385.1539c-1.2189-4.8443-1.8284-7.42-3.035-12.8252,1.0968-.4954,1.6557-.7589,2.7912-1.33.0127-1.8788.0265-2.8342.068-4.7892-13.5371-77.9328-21.9085-157.5776-23.171-236.7-.4021-1.8548-.5919-2.7616-.95-4.5456-1.1788-.4391-1.7531-.6443-2.87-1.01.1551-5.2424.2621-7.7355.5334-12.4413a34.1314,34.1314,0,0,1,10.9629-2.9969c.406,4.7279.6243,7.2335,1.09,12.5037-1.2557.9283-1.89,1.4185-3.1717,2.4319-.2539,1.9562-.3856,2.9483-.6586,4.9727,2.0985,38.766,5.4948,77.4543,9.1963,116.0952,1.1976-.1216,1.7985-.1824,3.0006-.3035,1.35-38.9138,3.73-77.9706,2.468-116.9181-.4592-1.93-.6856-2.8766-1.1336-4.745-1.3481-.8105-2.0135-1.2046-3.3246-1.9534-.7644-5.2291-1.14-7.7134-1.8727-12.3976a34.8753,34.8753,0,0,1,9.6841,1.2931c1.2956,4.5224,1.9406,6.927,3.219,11.9993-1.1057.8693-1.68,1.3359-2.8644,2.3354,2.6182,34.5454.7772,69.435-.4362,103.998,10.0127,46.2874,21.2523,92.921,25.9721,140.1308,1.5407.1828,2.2932.2452,3.7591.3242-.28,5.5054-.4557,8.135-.8739,13.0944a39.8906,39.8906,0,0,1-7.5763,2.8574c-.0332-3.6428-.0625-5.543-.1464-9.4791-5.0536-37.2532-13.9644-74.019-22.0092-110.7024-2.3441.2288-3.5131.34-5.8419.5566,3.5854,33.9423,7.4649,67.8521,12.2268,101.652.6805,1.9818,1.0124,2.9543,1.662,4.8749,1.4852.6261,2.22.9182,3.6722,1.4713.61,5.5562.9041,8.209,1.4647,13.21A38.4265,38.4265,0,0,1,560.1469,385.1539Z" style="fill:#7c5959"/><path d="M562.7914,110.376a44.7558,44.7558,0,0,1,11.4946,5.4253c3.6141,2.2367,8.4749,7.7117,14.9025,16.8468a160.4832,160.4832,0,0,1,22.1255,44.39c4.1466,13.4265,7.2956,27.2827,7.4241,41.6364.1051,11.7366-1.9172,20.9033-5.3,26.6521a41.4254,41.4254,0,0,1,5.486,11.3925,89.6054,89.6054,0,0,1,3.5073,17.1813,198.5173,198.5173,0,0,1,.6345,31.5274,196.354,196.354,0,0,1-2.6677,24.8328c-1.4163,9.133-2.598,14.3706-2.8353,16.6842-.2376,2.3153.3972,2.4883,2.0753.6656.1423-.1545.2131-.2317.3547-.3873a96.9923,96.9923,0,0,1-5.11,10.1149c-.92,1.46-1.6953,2.6914-2.3163,3.6607-.6268.98-1.1234,1.7348-1.5076,2.2724-.7784,1.0891-1.1468,1.3983-1.1784.8739a24.5457,24.5457,0,0,1,.8045-4.2182c3.119-12.7847,4.6562-25.6383,6.02-38.7153.6182-8.0425.7263-14.4351.7239-18.6879-.3209-11.7426-.5249-23.6735-3.6746-34.9377-1.844-6.5944-4.7221-9.8948-8.0948-9.441a14.43,14.43,0,0,0-3.4049,1.1439c-.0946.1014-.1415.1471-.2362.2486,2.0967,32.5126,2.6382,65.0817-1.428,97.477.1027,1.74.14,2.5878.1871,4.2508,1.0209-.0065,1.517-.0305,2.4789-.1088-1.0109,5.2508-1.5715,7.7549-2.7915,12.4667A47.8251,47.8251,0,0,1,590.4,380.4385c.5376-4.9338.77-7.55,1.1593-13.029,1.2008-1.1435,1.8047-1.7246,3.02-2.9166.5266-2.06.7913-3.1007,1.3257-5.2155,5.6522-76.62-2.1974-155.9655-23.6357-229.7784-.9356-1.9209-1.3974-2.8649-2.313-4.7321-1.4246-1.0508-2.13-1.5686-3.5241-2.5723C564.9931,117.1938,564.2635,114.8253,562.7914,110.376ZM575.56,126.521c13.3552,35.2452,19.674,72.897,24.3058,110.1318a21.2211,21.2211,0,0,0,2.1829.1606c.6784.0138,1.3418.0105,1.9682-.04,4.5755-.3654,7.4589-5.7606,7.94-15.2279.7176-14.1087-2.3615-29.173-6.2143-42.6911-3.7114-13.0221-8.85-26.4221-15.8653-38.12-4.5389-7.5687-8.463-11.9252-11.81-13.263C577.0674,127.072,576.5661,126.8819,575.56,126.521Z" style="fill:#7c5959"/></g></svg>